<?xml version="1.0" standalone="no"?>
<!DOCTYPE svg PUBLIC "-//W3C//DTD SVG 20010904//EN"
 "http://www.w3.org/TR/2001/REC-SVG-20010904/DTD/svg10.dtd">
<svg version="1.0" xmlns="http://www.w3.org/2000/svg"
 width="1080.000000pt" height="1080.000000pt" viewBox="0 0 1080.000000 1080.000000"
 preserveAspectRatio="xMidYMid meet">

<g transform="translate(0.000000,1080.000000) scale(0.100000,-0.100000)"
fill="#000000" stroke="none">
<path d="M7600 8064 c-556 -50 -1093 -301 -1421 -665 -379 -422 -573 -958
-595 -1649 -17 -532 90 -1053 306 -1495 164 -334 414 -620 699 -800 212 -133
493 -227 806 -271 158 -22 504 -29 650 -15 787 80 1366 531 1643 1281 41 109
95 290 90 296 -4 4 -604 154 -617 154 -5 0 -17 -33 -26 -72 -10 -40 -33 -118
-52 -173 -176 -511 -514 -822 -1013 -931 -131 -29 -486 -27 -627 4 -272 59
-528 191 -709 364 -184 176 -314 412 -400 727 -177 644 -124 1434 131 1946 75
150 137 237 250 351 201 203 435 325 735 385 146 29 464 37 605 15 443 -68
742 -303 935 -736 26 -58 57 -135 69 -172 13 -40 27 -65 34 -63 7 2 143 34
302 71 160 37 293 70 298 74 14 12 -62 213 -143 375 -188 377 -450 639 -815
815 -271 130 -499 179 -860 184 -126 2 -250 2 -275 0z"/>
<path d="M1693 5618 l-911 -2373 331 -3 c181 -1 332 0 334 2 2 2 117 314 254
692 137 379 254 701 260 717 l11 27 993 0 992 0 274 -711 c150 -391 276 -715
280 -720 3 -5 149 -8 360 -7 l355 3 -970 2372 -971 2373 -340 0 -340 0 -912
-2372z m1294 1687 c90 -282 182 -537 475 -1314 164 -437 297 -796 295 -798 -2
-2 -364 -2 -804 -1 l-800 3 238 635 c364 967 406 1092 489 1445 49 210 51 218
58 190 2 -11 24 -83 49 -160z"/>
</g>
</svg>
